<svg xmlns="http://www.w3.org/2000/svg" version="1.1" xmlns:xlink="http://www.w3.org/1999/xlink" xmlns:svgjs="http://svgjs.dev/svgjs" width="100%" height="100%" viewBox="0 0 1000 600"><rect width="1000" height="600" x="0" y="0" fill="#ffffff"/><g><circle r="166.66666666666666" cx="349.65798441569007" cy="371.88018488028075" fill="#8aaae5" transform="matrix(0.6830925711677129,0,0,0.683092571167713,0,45.97139826094755)"/><path d="M413.50538385443224 438.9337821972772L424.3358196615579 439.14855004614367L424.3358196615579 446.88019260533827L357.8191487554717 446.88019260533827L357.8191487554717 439.14855004614367L368.64958456259734 438.9337821972772L358.49413342333787 402.6993779813696L320.94044099296445 402.6993779813696L313.63833413150303 438.9337821972772L324.9289867576283 439.14855004614367L324.9289867576283 446.88019260533827L274.9801213355304 446.88019260533827L274.9801213355304 439.14855004614367L285.810557142656 438.9337821972772L335.2992057457543 300.65396864850857L362.6974470368682 296.8801907327112L413.50538385443224 438.9337821972772ZM322.71994602642985 394.53819972444205L356.07032484327294 394.53819972444205L336.61849396022 325.3829523894243L322.71994602642985 394.53819972444205Z " fill="#ffffff" transform="matrix(0.6830925711677129,0,0,0.683092571167713,0,45.97139826094755)"/><path d="M729.7482376331811 436.30584008894994L739.9191932081562 436.50753042613076L739.9191932081562 443.76838256463986L677.4528144927286 443.76838256463986L677.4528144927286 436.50753042613076L687.6237700677037 436.30584008894994L678.0866984095826 402.2777989160163L642.8197023082527 402.2777989160163L635.9622308441052 436.30584008894994L646.5653799987533 436.50753042613076L646.5653799987533 443.76838256463986L599.6579701515595 443.76838256463986L599.6579701515595 436.50753042613076L609.8289257265346 436.30584008894994L656.3041419940553 306.4460758498208L682.0340664372642 302.9020884965008L729.7482376331811 436.30584008894994ZM644.4908508163222 394.6135661031457L675.8104788899707 394.6135661031457L657.5430969224517 329.6692775309252L644.4908508163222 394.6135661031457ZM835.1170323574979 437.1414143429847L842.6083877384992 437.74648535452707L842.6083877384992 443.76838256463986L798.2077006534099 443.76838256463986L798.2077006534099 437.74648535452707L805.8719334662806 437.1414143429847L805.8719334662806 393.34579826943775Q805.8719334662806 384.24092019098975 800.8008621314489 379.2562875720927Q795.7009778913056 374.2716549531955 786.7977901500385 374.06996461601466L786.7977901500385 374.06996461601466L780.1420090230718 380.8986231748506L779.3352476743485 437.1414143429847L786.9994804872192 437.74648535452707L786.9994804872192 443.76838256463986L742.397103064949 443.76838256463986L742.397103064949 437.74648535452707L750.0613358778197 437.1414143429847L749.4562648662773 362.8617444498241L741.5615288109143 364.73458329507446L739.4869996284831 358.51099574778095L772.2760858730202 348.34004017280586L779.5369380115293 371.5632418539104L796.7382424825212 346.8993949072286Q816.4462697156173 346.8993949072286 825.7816510365576 356.2347762281689Q835.1170323574979 365.57015754910924 835.1170323574979 385.04768153971304L835.1170323574979 385.04768153971304L835.1170323574979 437.1414143429847ZM908.7628183338045 421.15025189507776L912.3068056871246 427.37383944237126L886.9802619182772 445.64122140989025Q871.6517962925358 445.64122140989025 864.6790732071421 438.0634273129541Q857.7351630270599 430.4856332160181 857.7351630270599 413.68770941938783L857.7351630270599 413.68770941938783L857.7351630270599 358.51099574778095L843.8473426668957 358.51099574778095L843.8473426668957 351.8552146208142Q852.548840070982 347.10108524440943 862.8350472672032 338.284336219077Q873.092441558113 329.4675871937444 881.5922486250184 319.700012293131L881.5922486250184 319.700012293131L888.449720089166 321.77454147556216L887.4124554979504 350.41456935523706L911.6729217702705 350.41456935523706L911.6729217702705 359.1160667593233L886.9802619182772 358.71268608496166L886.9802619182772 406.4268572808787Q886.9802619182772 416.396122518673 890.8411912300242 420.94856155789694Q894.6733076364594 425.5010005971209 901.0985855209339 425.5010005971209L901.0985855209339 425.5010005971209L908.7628183338045 421.15025189507776ZM962.2971964026535 347.30277558159025Q983.0424882269651 347.30277558159025 995.6913536587331 359.54826033899644Q1008.3402190905008 371.79374509640274 1008.3402190905008 394.38306286065324L1008.3402190905008 394.38306286065324Q1008.3402190905008 404.1506377612667 1004.9402962637387 414.5232836734226Q1001.511560531665 424.89592958557853 994.8557794046983 432.76185273563L994.8557794046983 432.76185273563Q988.228811183043 439.2159435254159 979.4120621577106 443.0480599318513Q970.5953131323781 446.88017633828656 960.8565511370762 446.88017633828656L960.8565511370762 446.88017633828656Q940.1112593127646 446.88017633828656 927.4335809756851 434.63469158088037Q914.7847155439173 422.3892068234742 914.7847155439173 399.7998890592236L914.7847155439173 399.7998890592236Q914.7847155439173 390.23400449579094 918.3287028972371 379.861358583635Q921.8438773452456 369.4887126714792 928.4708455669007 361.62278952142765L928.4708455669007 361.62278952142765Q935.1266266938674 355.1975116369533 943.9433757191998 351.25014360927184Q952.7601247445324 347.30277558159025 962.2971964026535 347.30277558159025L962.2971964026535 347.30277558159025ZM944.6636983519884 389.8306238214293Q944.6636983519884 409.5386510545254 952.4431827861054 419.2774130498274Q960.2226672202223 429.0449879504408 975.3782554140944 430.9178267956912L975.3782554140944 430.9178267956912Q976.8189006796716 424.6942392483977 977.6544749337065 417.00119353021535Q978.4900491877413 409.3369607173447 978.4900491877413 404.3523280984475L978.4900491877413 404.3523280984475Q978.4900491877413 384.4426105281706 970.7105647536243 374.79028724880334Q962.9310803195074 365.137963969436 947.977182462816 363.2651251241857L947.977182462816 363.2651251241857Q946.5365371972388 369.71921591397154 945.5857113219579 377.3834487268423Q944.6636983519884 385.04768153971304 944.6636983519884 389.8306238214293L944.6636983519884 389.8306238214293ZM1069.9710235518937 347.30277558159025Q1081.9860050668076 347.30277558159025 1091.2349476718132 352.8060404960952Q1100.4550773715073 358.30930541060013 1105.6414003275852 367.9328157846559Q1110.827723283663 377.5851390640231 1110.827723283663 389.8306238214293L1110.827723283663 389.8306238214293Q1110.827723283663 400.40496007076604 1107.312548835655 412.2470641538106Q1103.768561482335 424.06035533154363 1098.8127417687492 430.6873235531988L1098.8127417687492 430.6873235531988Q1094.8653737410677 436.30584008894994 1084.492727828912 441.57860176096244Q1074.1200819167561 446.88017633828656 1067.0609201154277 446.88017633828656L1067.0609201154277 446.88017633828656Q1057.7255387944874 446.88017633828656 1042.8004538431076 443.4514406062128Q1027.8465559864162 440.0227048741391 1020.5857038479071 436.1041497517691L1020.5857038479071 436.1041497517691L1019.9806328363647 312.8713537342951L1012.0858967810016 314.51368933705305L1010.0113675985705 308.5206050322519L1048.390157473547 296.88019128638814L1051.300260910013 301.8648239052852L1050.4646866559783 370.1225965883332L1069.9710235518937 347.30277558159025ZM1075.762417519514 431.11951713287203Q1080.9487404755919 419.2774130498274 1080.9487404755919 402.2777989160163L1080.9487404755919 402.2777989160163Q1080.9487404755919 392.7407272578953 1077.8369467019452 385.681565456567Q1074.7251529282985 378.6224036552387 1069.6540815934668 374.90553887004944Q1064.5830102586349 371.1598611795488 1058.7628033857031 371.1598611795488L1058.7628033857031 371.1598611795488L1050.4646866559783 379.4579779092735L1049.8308027391245 422.3892068234742Q1063.949126341781 428.84329761326 1075.762417519514 431.11951713287203L1075.762417519514 431.11951713287203ZM1165.3993659437276 347.30277558159025Q1186.1446577680395 347.30277558159025 1198.7935231998072 359.54826033899644Q1211.442388631575 371.79374509640274 1211.442388631575 394.38306286065324L1211.442388631575 394.38306286065324Q1211.442388631575 404.1506377612667 1208.0136528995013 414.5232836734226Q1204.6137300727391 424.89592958557853 1197.9579489457724 432.76185273563L1197.9579489457724 432.76185273563Q1191.3309807241174 439.2159435254159 1182.514231698785 443.0480599318513Q1173.6974826734524 446.88017633828656 1163.9299077728388 446.88017633828656L1163.9299077728388 446.88017633828656Q1143.1846159485272 446.88017633828656 1130.5357505167594 434.63469158088037Q1117.8868850849915 422.3892068234742 1117.8868850849915 399.7998890592236L1117.8868850849915 399.7998890592236Q1117.8868850849915 390.23400449579094 1121.4020595329998 379.861358583635Q1124.94604688632 369.4887126714792 1131.573015107975 361.62278952142765L1131.573015107975 361.62278952142765Q1138.2287962349415 355.1975116369533 1147.0455452602741 351.25014360927184Q1155.8622942856066 347.30277558159025 1165.3993659437276 347.30277558159025L1165.3993659437276 347.30277558159025ZM1147.7658678930627 389.8306238214293Q1147.7658678930627 409.5386510545254 1155.5453523271794 419.2774130498274Q1163.3248367612964 429.0449879504408 1178.4516120498572 430.9178267956912L1178.4516120498572 430.9178267956912Q1179.9210702207458 424.6942392483977 1180.7566444747806 417.00119353021535Q1181.563405823504 409.3369607173447 1181.563405823504 404.3523280984475L1181.563405823504 404.3523280984475Q1181.563405823504 384.4426105281706 1173.783921389387 374.79028724880334Q1166.0044369552702 365.137963969436 1151.07935200389 363.2651251241857L1151.07935200389 363.2651251241857Q1149.638706738313 369.71921591397154 1148.6878808630322 377.3834487268423Q1147.7658678930627 385.04768153971304 1147.7658678930627 389.8306238214293L1147.7658678930627 389.8306238214293ZM1277.4239417950112 421.15025189507776L1280.9391162430195 427.37383944237126L1255.6413853794838 445.64122140989025Q1240.2841068484308 445.64122140989025 1233.3401966683487 438.0634273129541Q1226.3962864882665 430.4856332160181 1226.3962864882665 413.68770941938783L1226.3962864882665 413.68770941938783L1226.3962864882665 358.51099574778095L1212.4796532227906 358.51099574778095L1212.4796532227906 351.8552146208142Q1221.2099635321886 347.10108524440943 1231.4673578230982 338.284336219077Q1241.724752114008 329.4675871937444 1250.253372086225 319.700012293131L1250.253372086225 319.700012293131L1257.082030645061 321.77454147556216L1256.0447660538453 350.41456935523706L1280.334045231477 350.41456935523706L1280.334045231477 359.1160667593233L1255.6413853794838 358.71268608496166L1255.6413853794838 406.4268572808787Q1255.6413853794838 416.396122518673 1259.473501785919 420.94856155789694Q1263.3056181923544 425.5010005971209 1269.7308960768287 425.5010005971209L1269.7308960768287 425.5010005971209L1277.4239417950112 421.15025189507776Z " fill="#8aaae5" transform="matrix(0.6830925711677129,0,0,0.683092571167713,0,45.97139826094755)"/></g></svg>